<svg xmlns="http://www.w3.org/2000/svg" width="1100" height="580" viewBox="0 0 1100 580"><rect width="1100" height="580" fill="white"/><g font-family="Arial" fill="#183047"><text x="550" y="40" text-anchor="middle" font-size="24">Andersen framing of the final 12 constructs</text>
<text x="200" y="86" text-anchor="middle" font-size="20">Predisposing</text>
<rect x="45" y="110" width="310" height="50" rx="8" fill="#eaf4fc" stroke="#39759b"/><text x="200" y="141" text-anchor="middle" font-size="17">AGEP_A</text>
<rect x="45" y="180" width="310" height="50" rx="8" fill="#eaf4fc" stroke="#39759b"/><text x="200" y="211" text-anchor="middle" font-size="17">SEX_A</text>
<rect x="45" y="250" width="310" height="50" rx="8" fill="#eaf4fc" stroke="#39759b"/><text x="200" y="281" text-anchor="middle" font-size="17">HISPALLP_A</text>
<rect x="45" y="320" width="310" height="50" rx="8" fill="#eaf4fc" stroke="#39759b"/><text x="200" y="351" text-anchor="middle" font-size="17">EDUCP_A</text>
<text x="545" y="86" text-anchor="middle" font-size="20">Enabling</text>
<rect x="390" y="110" width="310" height="50" rx="8" fill="#eaf4fc" stroke="#39759b"/><text x="545" y="141" text-anchor="middle" font-size="17">RATCAT_A</text>
<rect x="390" y="180" width="310" height="50" rx="8" fill="#eaf4fc" stroke="#39759b"/><text x="545" y="211" text-anchor="middle" font-size="17">EMPWRKLSW1_A</text>
<rect x="390" y="250" width="310" height="50" rx="8" fill="#eaf4fc" stroke="#39759b"/><text x="545" y="281" text-anchor="middle" font-size="17">NOTCOV_A</text>
<rect x="390" y="320" width="310" height="50" rx="8" fill="#eaf4fc" stroke="#39759b"/><text x="545" y="351" text-anchor="middle" font-size="17">FDSCAT3_A</text>
<text x="890" y="86" text-anchor="middle" font-size="20">Need</text>
<rect x="735" y="110" width="310" height="50" rx="8" fill="#eaf4fc" stroke="#39759b"/><text x="890" y="141" text-anchor="middle" font-size="17">PHSTAT_A</text>
<rect x="735" y="180" width="310" height="50" rx="8" fill="#eaf4fc" stroke="#39759b"/><text x="890" y="211" text-anchor="middle" font-size="17">DISAB3_A</text>
<rect x="735" y="250" width="310" height="50" rx="8" fill="#eaf4fc" stroke="#39759b"/><text x="890" y="281" text-anchor="middle" font-size="17">K6SPD_A</text>
<rect x="735" y="320" width="310" height="50" rx="8" fill="#eaf4fc" stroke="#39759b"/><text x="890" y="351" text-anchor="middle" font-size="17">CHRONIC_BURDEN_CAT</text>
<rect x="45" y="418" width="1000" height="64" rx="8" fill="#eaf4fc" stroke="#39759b"/><text x="545" y="455" text-anchor="middle" font-size="19">Cost-related forgone care / delayed care: independent predictive outcomes</text><text x="550" y="516" text-anchor="middle" font-size="15">Conceptual grouping guides interpretation; it does not establish causal pathways.</text><text x="550" y="548" text-anchor="middle" font-size="15">RATCAT_A primary; replace with POVRATTC_A only in poverty-imputation sensitivity.</text></g></svg>