<svg xmlns="http://www.w3.org/2000/svg" viewBox="0 0 760 500">
<rect width="100%" height="100%" fill="white"/>
<text x="380.0" y="25" text-anchor="middle" font-family="Arial" font-size="18">NHIS 2024 MEDDL — Calibration (locked test)</text>
<path d="M70,45 V440 H735" fill="none" stroke="black"/>
<text x="70" y="460" text-anchor="middle" font-family="Arial" font-size="11">0.00</text><text x="62" y="444" text-anchor="end" font-family="Arial" font-size="11">0.00</text>
<text x="203" y="460" text-anchor="middle" font-family="Arial" font-size="11">0.07</text><text x="62" y="365" text-anchor="end" font-family="Arial" font-size="11">0.07</text>
<text x="336" y="460" text-anchor="middle" font-family="Arial" font-size="11">0.14</text><text x="62" y="286" text-anchor="end" font-family="Arial" font-size="11">0.14</text>
<text x="469" y="460" text-anchor="middle" font-family="Arial" font-size="11">0.21</text><text x="62" y="207" text-anchor="end" font-family="Arial" font-size="11">0.21</text>
<text x="602" y="460" text-anchor="middle" font-family="Arial" font-size="11">0.28</text><text x="62" y="128" text-anchor="end" font-family="Arial" font-size="11">0.28</text>
<text x="735" y="460" text-anchor="middle" font-family="Arial" font-size="11">0.35</text><text x="62" y="49" text-anchor="end" font-family="Arial" font-size="11">0.35</text>
<text x="402.5" y="488" text-anchor="middle" font-family="Arial" font-size="13">Mean predicted probability</text>
<text x="16" y="242.5" transform="rotate(-90 16 242.5)" text-anchor="middle" font-family="Arial" font-size="13">Observed event proportion</text>
<polyline points="98.4,420.7 115.8,420.7 129.6,399.6 143.6,415.4 159.7,401.3 178.0,369.6 204.5,383.7 243.5,343.3 316.5,258.9 662.8,67.3" fill="none" stroke="black" stroke-width="2.2"/><text x="82" y="63" font-family="Arial" font-size="12">LR</text>
<polyline points="97.1,429.5 109.3,425.9 123.4,417.1 141.8,401.3 158.5,396.1 176.3,385.4 198.4,355.6 231.9,327.5 339.8,276.5 665.3,65.6" fill="none" stroke="black" stroke-width="2.2" stroke-dasharray="7,4"/><text x="82" y="81" font-family="Arial" font-size="12">RF</text>
<polyline points="86.9,425.9 101.9,427.7 116.9,427.7 135.3,404.8 156.0,406.6 180.1,367.8 210.8,346.8 254.0,345.1 340.5,246.6 659.2,81.4" fill="none" stroke="black" stroke-width="2.2" stroke-dasharray="2,3"/><text x="82" y="99" font-family="Arial" font-size="12">XGBoost</text>
<polyline points="70.0,440.0 735.0,45.0" fill="none" stroke="black" stroke-width="1.4" stroke-dasharray="5,4" opacity=".55"/><text x="200" y="63" font-family="Arial" font-size="12">Perfect calibration</text>
</svg>