<svg xmlns="http://www.w3.org/2000/svg" viewBox="0 0 760 500">
<rect width="100%" height="100%" fill="white"/>
<text x="380.0" y="25" text-anchor="middle" font-family="Arial" font-size="18">NHIS 2024 MEDDL — Exploratory Decision Curve</text>
<path d="M70,45 V440 H735" fill="none" stroke="black"/>
<text x="70" y="460" text-anchor="middle" font-family="Arial" font-size="11">0.01</text>
<text x="62" y="444" text-anchor="end" font-family="Arial" font-size="11">-0.32</text>
<text x="203" y="460" text-anchor="middle" font-family="Arial" font-size="11">0.07</text>
<text x="62" y="365" text-anchor="end" font-family="Arial" font-size="11">-0.24</text>
<text x="336" y="460" text-anchor="middle" font-family="Arial" font-size="11">0.13</text>
<text x="62" y="286" text-anchor="end" font-family="Arial" font-size="11">-0.16</text>
<text x="469" y="460" text-anchor="middle" font-family="Arial" font-size="11">0.18</text>
<text x="62" y="207" text-anchor="end" font-family="Arial" font-size="11">-0.08</text>
<text x="602" y="460" text-anchor="middle" font-family="Arial" font-size="11">0.24</text>
<text x="62" y="128" text-anchor="end" font-family="Arial" font-size="11">-0.00</text>
<text x="735" y="460" text-anchor="middle" font-family="Arial" font-size="11">0.30</text>
<text x="62" y="49" text-anchor="end" font-family="Arial" font-size="11">0.08</text>
<text x="402.5" y="488" text-anchor="middle" font-family="Arial" font-size="13">Threshold probability</text>
<text x="16" y="242.5" transform="rotate(-90 16 242.5)" text-anchor="middle" font-family="Arial" font-size="13">Net benefit</text>
<polyline points="70.0,53.0 81.5,57.4 92.9,61.8 104.4,65.9 115.9,68.8 127.3,72.7 138.8,74.6 150.3,76.8 161.7,78.5 173.2,80.7 184.7,83.1 196.1,85.4 207.6,86.3 219.1,87.3 230.5,87.6 242.0,88.9 253.4,90.3 264.9,91.0 276.4,91.4 287.8,92.6 299.3,94.1 310.8,95.0 322.2,96.2 333.7,97.4 345.2,98.8 356.6,99.2 368.1,100.4 379.6,100.9 391.0,101.9 402.5,102.6 414.0,102.9 425.4,103.5 436.9,105.0 448.4,106.1 459.8,106.5 471.3,107.2 482.8,107.8 494.2,108.6 505.7,109.1 517.2,108.9 528.6,109.5 540.1,109.8 551.6,110.4 563.0,111.3 574.5,111.5 585.9,111.7 597.4,112.2 608.9,112.4 620.3,112.3 631.8,113.0 643.3,113.2 654.7,113.8 666.2,114.1 677.7,114.4 689.1,114.4 700.6,114.4 712.1,114.5 723.5,114.6 735.0,115.4" fill="none" stroke="black" stroke-width="2.2"/><text x="82" y="63" font-family="Arial" font-size="12">LR</text>
<polyline points="70.0,52.7 81.5,57.3 92.9,60.6 104.4,63.9 115.9,66.4 127.3,69.4 138.8,72.6 150.3,75.4 161.7,77.2 173.2,79.4 184.7,80.9 196.1,82.4 207.6,84.4 219.1,86.4 230.5,87.8 242.0,89.1 253.4,90.2 264.9,91.7 276.4,93.3 287.8,94.8 299.3,96.8 310.8,97.4 322.2,98.2 333.7,98.5 345.2,99.3 356.6,100.9 368.1,101.3 379.6,101.8 391.0,102.3 402.5,102.9 414.0,103.3 425.4,103.8 436.9,104.7 448.4,106.1 459.8,106.6 471.3,106.8 482.8,107.2 494.2,107.0 505.7,107.5 517.2,108.4 528.6,108.6 540.1,108.7 551.6,109.4 563.0,109.7 574.5,110.3 585.9,110.6 597.4,110.9 608.9,111.6 620.3,112.5 631.8,112.9 643.3,113.4 654.7,113.8 666.2,114.2 677.7,114.8 689.1,115.4 700.6,115.6 712.1,116.1 723.5,116.1 735.0,116.3" fill="none" stroke="black" stroke-width="2.2" stroke-dasharray="7,4"/><text x="82" y="81" font-family="Arial" font-size="12">RF</text>
<polyline points="70.0,52.5 81.5,56.6 92.9,60.5 104.4,62.9 115.9,66.1 127.3,68.7 138.8,71.3 150.3,73.1 161.7,75.5 173.2,77.3 184.7,79.2 196.1,82.0 207.6,84.1 219.1,86.5 230.5,88.1 242.0,89.6 253.4,90.1 264.9,91.8 276.4,92.4 287.8,92.7 299.3,94.2 310.8,94.8 322.2,95.1 333.7,96.1 345.2,97.5 356.6,98.3 368.1,99.0 379.6,100.1 391.0,100.7 402.5,101.6 414.0,102.4 425.4,103.5 436.9,104.2 448.4,105.3 459.8,107.2 471.3,107.9 482.8,108.0 494.2,108.8 505.7,108.8 517.2,109.8 528.6,110.1 540.1,110.4 551.6,110.7 563.0,111.0 574.5,111.4 585.9,112.4 597.4,113.0 608.9,113.6 620.3,113.6 631.8,114.0 643.3,114.1 654.7,114.7 666.2,114.3 677.7,114.9 689.1,115.2 700.6,115.4 712.1,115.2 723.5,115.6 735.0,116.5" fill="none" stroke="black" stroke-width="2.2" stroke-dasharray="2,3"/><text x="82" y="99" font-family="Arial" font-size="12">XGBoost</text>
<polyline points="70.0,52.7 81.5,57.3 92.9,62.0 104.4,66.7 115.9,71.5 127.3,76.3 138.8,81.2 150.3,86.1 161.7,91.1 173.2,96.1 184.7,101.2 196.1,106.4 207.6,111.6 219.1,116.8 230.5,122.1 242.0,127.5 253.4,132.9 264.9,138.4 276.4,143.9 287.8,149.6 299.3,155.2 310.8,161.0 322.2,166.8 333.7,172.6 345.2,178.6 356.6,184.6 368.1,190.6 379.6,196.8 391.0,203.0 402.5,209.3 414.0,215.7 425.4,222.1 436.9,228.6 448.4,235.2 459.8,241.9 471.3,248.6 482.8,255.5 494.2,262.4 505.7,269.4 517.2,276.5 528.6,283.7 540.1,291.0 551.6,298.4 563.0,305.9 574.5,313.4 585.9,321.1 597.4,328.9 608.9,336.8 620.3,344.7 631.8,352.8 643.3,361.0 654.7,369.3 666.2,377.7 677.7,386.3 689.1,394.9 700.6,403.7 712.1,412.6 723.5,421.6 735.0,430.8" fill="none" stroke="black" stroke-width="1.4" stroke-dasharray="6,4" opacity=".55"/><text x="200" y="63" font-family="Arial" font-size="12">Treat all</text>
<polyline points="70.0,123.7 735.0,123.7" fill="none" stroke="black" stroke-width="1.4" stroke-dasharray="2,3" opacity=".55"/><text x="200" y="81" font-family="Arial" font-size="12">Treat none</text>
</svg>